<svg id="__svg__icons__dom__" xmlns="http://www.w3.org/2000/svg" xmlns:link="http://www.w3.org/1999/xlink" style="position: absolute; width: 0px; height: 0px;"><symbol viewBox="0 0 26 26" id="icon-android-app"><defs><clipPath id="icon-android-app_a"><path data-name="Rectangle 379" fill="none" d="M0 0h26v26H0z"></path></clipPath></defs><g data-name="Group 877" clip-path="url(#icon-android-app_a)"><path data-name="Path 111" d="M26 13A13 13 0 1 1 13 0a13 13 0 0 1 13 13" fill="#3b8701"></path><path data-name="Path 112" d="M6.228 10.49a.861.861 0 0 0-.864.86v4.175a.864.864 0 1 0 1.727 0V11.35a.859.859 0 0 0-.862-.86" fill="#fff"></path><path data-name="Path 113" d="M19.774 10.49a.86.86 0 0 0-.862.86v4.175a.865.865 0 1 0 1.729 0V11.35a.863.863 0 0 0-.866-.86" fill="#fff"></path><path data-name="Path 114" d="M7.865 10.49v7.735a1.3 1.3 0 0 0 1.294 1.3h1.386v2.186a.864.864 0 1 0 1.728 0V19.52h1.474v2.191a.864.864 0 1 0 1.727 0V19.52h1.384a1.3 1.3 0 0 0 1.3-1.3v-7.7a.164.164 0 0 0 0-.032Z" fill="#fff"></path><path data-name="Path 115" d="m15.522 5.246.923-1.721-.189-.1-.926 1.72a5.109 5.109 0 0 0-4.534-.051l-.9-1.669-.192.1.894 1.662a5.121 5.121 0 0 0-2.7 4.476h10.22a5.111 5.111 0 0 0-2.6-4.416m-5.141 2.446a.487.487 0 1 1 .487-.485.49.49 0 0 1-.487.485m5.18 0a.487.487 0 1 1 .485-.485.485.485 0 0 1-.485.485" fill="#fff"></path></g></symbol><symbol viewBox="0 0 26 26" id="icon-iosApp"><defs><clipPath id="icon-iosApp_a"><path data-name="Rectangle 378" fill="none" d="M0 0h26v26H0z"></path></clipPath></defs><g data-name="Group 875" clip-path="url(#icon-iosApp_a)"><path data-name="Path 108" d="M26 13A13 13 0 1 1 13 0a13 13 0 0 1 13 13" fill="#646464"></path><path data-name="Path 109" d="M9.601 7.605a4.7 4.7 0 0 1 1.632.327c.318.111.631.229.957.312a2.8 2.8 0 0 0 1.717-.126 8.879 8.879 0 0 1 1.216-.407 3.92 3.92 0 0 1 3.4.774 4.421 4.421 0 0 1 .753.718c.091.1.087.126-.031.2a3.5 3.5 0 0 0-1.772 2.8 3.686 3.686 0 0 0 1.044 2.984 3.606 3.606 0 0 0 1.214.833c.13.052.136.071.081.2a12.643 12.643 0 0 1-2.046 3.264 3.831 3.831 0 0 1-1.018.848 2.055 2.055 0 0 1-1.892.074c-.264-.11-.519-.248-.791-.339a3.716 3.716 0 0 0-2.616.11c-.225.095-.446.2-.675.28a2.2 2.2 0 0 1-2.258-.414 5.856 5.856 0 0 1-1.065-1.145 11.392 11.392 0 0 1-1.668-3.169 9.447 9.447 0 0 1-.493-2.522 6.023 6.023 0 0 1 .4-2.764 4.631 4.631 0 0 1 3.063-2.732 2.656 2.656 0 0 1 .848-.106" fill="#fdfdfd" fill-rule="evenodd"></path><path data-name="Path 110" d="M15.816 4.012a3.769 3.769 0 0 1-.673 2.12 3.608 3.608 0 0 1-1.927 1.458 2.478 2.478 0 0 1-.761.122c-.1 0-.14-.039-.15-.141a3.034 3.034 0 0 1 .315-1.669 4.028 4.028 0 0 1 2.384-2.115 3.8 3.8 0 0 1 .667-.151c.1-.019.117.044.122.115a1.605 1.605 0 0 1 .023.261" fill="#fdfdfd" fill-rule="evenodd"></path></g></symbol><symbol fill="none" viewBox="0 0 34 34" id="icon-open-promotion"><g clip-path="url(#icon-open-promotion_a)"><path d="M17 0C7.611 0 0 7.611 0 17s7.611 17 17 17 17-7.611 17-17S26.389 0 17 0Z" fill="url(#icon-open-promotion_b)"></path><path d="m16.09 12.893.91-.91.91.91 4.85 4.85c.172.172.4.266.644.266a.896.896 0 0 0 .84-.562.896.896 0 0 0-.197-.992l-6.114-6.115a1.32 1.32 0 0 0-1.866 0l-6.115 6.115a.896.896 0 0 0-.197.992.897.897 0 0 0 .841.562.905.905 0 0 0 .644-.266l2.425-2.425 2.425-2.425Z" fill="#fff"></path><path d="m16.09 18.143.91-.91.91.91 4.85 4.85c.172.171.4.266.644.266a.896.896 0 0 0 .84-.562.896.896 0 0 0-.197-.992l-6.114-6.115a1.32 1.32 0 0 0-1.866 0l-6.115 6.115a.896.896 0 0 0-.197.992.897.897 0 0 0 .841.562.905.905 0 0 0 .644-.266l2.425-2.425 2.425-2.425Z" fill="#fff"></path></g><defs><radialGradient id="icon-open-promotion_b" cx="0" cy="0" r="1" gradientUnits="userSpaceOnUse" gradientTransform="rotate(180 13.142 15.818) scale(32.6771)"><stop stop-color="#FF9D00"></stop><stop offset="1" stop-color="#FF3800"></stop></radialGradient><clipPath id="icon-open-promotion_a"><path fill="#fff" transform="rotate(180 17 17)" d="M0 0h34v34H0z"></path></clipPath></defs></symbol><symbol viewBox="0 0 100 100" id="icon-sms"><path d="M50.96 0C24.06 0 2.25 21.81 2.25 48.71c0 9.2 2.56 17.81 6.99 25.15L.44 100l26.97-8.63a48.512 48.512 0 0 0 23.54 6.06c26.91 0 48.72-21.81 48.72-48.71S77.86 0 50.96 0Zm-16 55.22c-.95 4.95-4.2 7.6-9.73 7.94h-3.11c-6.02-.17-9.41-3.21-10.17-9.11-.02-.39.19-.59.66-.59l5.67-.48c.39-.02.65.23.77.77 1.12 3.37 3.3 4.56 6.55 3.59 1.46-.59 2.18-1.37 2.16-2.34 0-1.07-.61-1.85-1.83-2.34-4.2-.95-7.19-1.91-9-2.89-2.37-1.37-3.72-3.23-4.06-5.6v-1.83c.27-1.73 1.06-3.21 2.38-4.43 1.97-1.36 4.15-2.17 6.51-2.41h3.33c2.66.22 4.8 1 6.44 2.34 1.49 1.44 2.35 3.3 2.6 5.6.02.39-.15.6-.51.62l-5.82.18c-.37.03-.61-.15-.73-.51-.66-1.85-1.7-2.82-3.11-2.89h-1.83c-1.68.24-2.43.99-2.23 2.23.37.98 1.38 1.57 3.04 1.79 1.49.44 2.99.81 4.5 1.1 1.93.64 3.43 1.34 4.5 2.12 1.85 1.37 2.87 3.13 3.04 5.3v1.83Zm30.93 6.95c0 .42-.19.62-.58.62h-5.27c-.42 0-.62-.18-.62-.55V45.38l-.04-.48c-.07.07-.16.29-.26.66-1.39 5.56-2.74 11.12-4.06 16.68-.12.37-.38.55-.77.55h-4.87c-.37 0-.61-.18-.73-.55l-4.35-16.97c-.07 0-.11.15-.11.44v16.46c0 .42-.18.62-.55.62h-5.19c-.39 0-.59-.18-.59-.55V36.56c0-.39.19-.59.59-.59h8.6c.39 0 .64.18.77.55l3.84 14.56.22.51c.07-.02.16-.23.26-.62 1.17-4.8 2.4-9.62 3.7-14.45.12-.37.37-.55.73-.55h8.67c.42 0 .62.18.62.55v25.64Zm15.75.99h-3.11c-6.02-.17-9.41-3.21-10.17-9.11-.02-.39.19-.59.66-.59l5.67-.48c.39-.02.65.23.77.77 1.12 3.37 3.3 4.56 6.55 3.59 1.46-.59 2.18-1.37 2.16-2.34 0-1.07-.61-1.85-1.83-2.34-4.2-.95-7.19-1.91-9-2.89-2.37-1.37-3.72-3.23-4.06-5.6v-1.83c.27-1.73 1.06-3.21 2.38-4.43 1.97-1.36 4.15-2.17 6.51-2.41h3.33c2.66.22 4.8 1 6.44 2.34 1.49 1.44 2.35 3.3 2.6 5.6.02.39-.15.6-.51.62l-5.82.18c-.37.03-.61-.15-.73-.51-.66-1.85-1.7-2.82-3.11-2.89h-1.83c-1.68.24-2.43.99-2.23 2.23.37.98 1.38 1.57 3.04 1.79 1.49.44 2.99.81 4.5 1.1 1.93.64 3.43 1.34 4.5 2.12 1.85 1.37 2.87 3.13 3.04 5.3v1.83c-.95 4.95-4.2 7.6-9.73 7.94Z" style="fill-rule:evenodd;stroke-width:0"></path></symbol><symbol viewBox="0 0 50 50" id="icon-temu-popup-close"><path d="M25 0C11.19 0 0 11.19 0 25s11.19 25 25 25 25-11.19 25-25S38.81 0 25 0Zm13.48 35.51a2.1 2.1 0 0 1 0 2.97c-.41.41-.95.61-1.48.61s-1.07-.21-1.48-.61L25 27.96 14.48 38.48c-.41.41-.95.61-1.48.61s-1.07-.21-1.48-.61a2.1 2.1 0 0 1 0-2.97L22.03 25 11.52 14.49a2.1 2.1 0 0 1 2.97-2.97l10.52 10.51 10.52-10.51a2.1 2.1 0 0 1 2.97 2.97L27.99 25 38.5 35.51Z"></path></symbol><symbol fill="none" viewBox="0 0 50 50" id="icon-test"><circle cx="25" cy="25" r="25" fill="#1199FA"></circle><path d="M20.719 15h-4.576c-.63 0-1.143.498-1.143 1.111v4.444M20.719 35h-4.576c-.63 0-1.143-.498-1.143-1.111v-4.444M29.87 35h4.575c.63 0 1.143-.498 1.143-1.111v-4.444M29.87 15h4.576c.63 0 1.143.498 1.143 1.111v4.444M29.87 25h-9.15m4.575 4.445v-8.89" stroke="currentColor" stroke-width="2.5" stroke-linecap="round" stroke-linejoin="round"></path></symbol><symbol viewBox="0 0 56 56" id="icon-ticket-arrow"><defs><clipPath id="icon-ticket-arrow_a"><path data-name="Rectangle 22" fill="none" d="M0 0h14.814v25.106H0z"></path></clipPath></defs><g data-name="Group 607"><g data-name="Group 534"><g data-name="Group 5" transform="translate(20 15.447)" clip-path="url(#icon-ticket-arrow_a)"><path data-name="Path 1" d="M.661 10.951 10.95.661a2.265 2.265 0 0 1 3.2 3.2l-8.685 8.692 8.689 8.689a2.265 2.265 0 0 1-3.2 3.2L.661 14.156a2.275 2.275 0 0 1 0-3.205" fill="#fff"></path></g></g><g data-name="Ellipse 21" fill="none" stroke="currentColor" stroke-width="4"><circle cx="28" cy="28" r="28" stroke="none"></circle><circle cx="28" cy="28" r="26"></circle></g></g></symbol><symbol viewBox="0 0 20.9 23.4" id="icon-ticket-clock"><style>#icon-ticket-clock .st0{fill-rule:evenodd;clip-rule:evenodd}</style><path d="M11.5 7.9c0-.6-.5-1-1-1s-1 .4-1 1v5.6c0 .4.2.7.5.9l4.1 2.3c.5.3 1.1.1 1.4-.4.3-.5.1-1.1-.4-1.4l-3.6-2v-5z"></path><path class="st0" d="M19.1 7.7c1.1 1.6 1.8 3.6 1.8 5.6 0 5.5-4.7 10-10.4 10-5.8.1-10.5-4.4-10.5-10 0-2.1.7-4 1.8-5.6L3 6.3C4.3 5 5.8 4.1 7.6 3.7c0 0 1.3-.4 2.8-.4 1.4 0 2.8.4 2.8.4 1.8.4 3.4 1.3 4.7 2.6l1.2 1.4zm-8.7-2.4c-4.6 0-8.3 3.6-8.3 8s3.7 8 8.3 8c4.6 0 8.3-3.6 8.3-8s-3.7-8-8.3-8zM14.9 2.2H6c-.6 0-1.1-.5-1.1-1.1C4.9.5 5.4 0 6 0h8.8c.7 0 1.2.5 1.2 1.1 0 .6-.5 1.1-1.1 1.1z"></path></symbol><symbol viewBox="0 0 56 56" id="icon-ticket-popup-close"><g data-name="Group 639"><g data-name="Ellipse 21" fill="none" stroke="currentColor" stroke-width="4"><circle cx="28" cy="28" r="28" stroke="none"></circle><circle cx="28" cy="28" r="26"></circle></g><g data-name="Group 642"><g data-name="Group 637" transform="translate(15.03 15.069)" fill="#fff"><rect data-name="Rectangle 280" width="4.585" height="32.098" rx="2.293" transform="rotate(45 11.348 27.398)"></rect><rect data-name="Rectangle 281" width="4.585" height="32.098" rx="2.293" transform="rotate(135 8.269 16.72)"></rect></g></g></g></symbol><symbol viewBox="0 0 100 100" id="icon-whatsapp"><path d="M73.8 59.78c-1.22-.67-7.22-3.91-8.34-4.36-1.12-.46-1.95-.69-2.82.52-.87 1.21-3.36 3.92-4.12 4.72-.76.81-1.49.88-2.71.21s-5.18-2.13-9.77-6.55c-3.57-3.43-5.92-7.6-6.59-8.87-.68-1.27 0-1.92.64-2.52.58-.54 1.3-1.41 1.95-2.11.64-.7.87-1.21 1.32-2.03.45-.81.27-1.55-.02-2.18-.29-.63-2.54-6.84-3.49-9.37-.94-2.53-1.99-2.15-2.72-2.18-.73-.02-1.55-.16-2.38-.19-.83-.03-2.19.23-3.37 1.43-1.19 1.2-4.51 4.09-4.74 10.21-.23 6.12 4 12.2 4.59 13.05.59.85 8.08 14.12 20.53 19.57 12.46 5.45 12.52 3.79 14.81 3.67 2.29-.12 7.47-2.74 8.62-5.6 1.14-2.86 1.24-5.35.95-5.88-.29-.53-1.11-.87-2.33-1.54ZM50.96 0C24.06 0 2.25 21.81 2.25 48.71c0 9.2 2.56 17.81 6.99 25.15L.45 99.99l26.97-8.63c6.98 3.86 15 6.06 23.54 6.06 26.91 0 48.71-21.81 48.71-48.71S77.86 0 50.96 0Z" style="fill-rule:evenodd;stroke-width:0"></path></symbol></svg>